<?xml version="1.0" encoding="utf-8"?>
<svg style="border-radius: 10px" width="60pt" viewBox="-1334.745 -1310.985 3140.263 3154.123" xmlns="http://www.w3.org/2000/svg">
  <rect fill="#236c93" width="3192" height="3192" transform="matrix(1, 0, 0, 1, -1369.584901, -1321.741234)"/>
  <g transform="matrix(9.6, 0, 0, 9.6, -1274.066528, -1232.356201)">
    <g id="SvgjsG2195" featurekey="rootContainer" transform="matrix(6.25, 0, 0, 6.25, -1.356804, 0.23688)" fill="#e2f1ff">
      <path xmlns="http://www.w3.org/2000/svg" d="M24.95 0a25 25 0 1 0 25 25 25 25 0 0 0-25-25zm0 46.91a22 22 0 1 1 22-22 22 22 0 0 1-22 21.99z"/>
      <path xmlns="http://www.w3.org/2000/svg" d="M24.95 3.65a21.3 21.3 0 1 0 21.3 21.3 21.33 21.33 0 0 0-21.3-21.3z"/>
    </g>
    <g id="SvgjsG2196" featurekey="symbolFeature-0" transform="matrix(2.459464, 0, 0, 2.561249, 78.308189, 60.632935)" fill="#3dbaff" style="">
      <g xmlns="http://www.w3.org/2000/svg" class="st0" style="display: none;">
        <g class="st1" style="display: inline;">
          <rect x="2" y="2" class="st2" width="60" height="60" style="fill: none; stroke: #3dbaff; stroke-width: 0.1; stroke-miterlimit: 10;"/>
          <line class="st2" x1="32" y1="2" x2="32" y2="62" style="fill: none; stroke: #3dbaff; stroke-width: 0.1; stroke-miterlimit: 10;"/>
          <line class="st2" x1="62" y1="32" x2="2" y2="32" style="fill: none; stroke: #3dbaff; stroke-width: 0.1; stroke-miterlimit: 10;"/>
          <line class="st2" x1="2" y1="2" x2="62" y2="62" style="fill: none; stroke: #3dbaff; stroke-width: 0.1; stroke-miterlimit: 10;"/>
          <rect x="10" y="10" class="st2" width="44" height="44" style="fill: none; stroke: #3dbaff; stroke-width: 0.1; stroke-miterlimit: 10;"/>
          <line class="st2" x1="62" y1="2" x2="2" y2="62" style="fill: none; stroke: #3dbaff; stroke-width: 0.1; stroke-miterlimit: 10;"/>
          <line class="st2" x1="2" y1="32" x2="32" y2="2" style="fill: none; stroke: #3dbaff; stroke-width: 0.1; stroke-miterlimit: 10;"/>
          <line class="st2" x1="32" y1="2" x2="62" y2="32" style="fill: none; stroke: #3dbaff; stroke-width: 0.1; stroke-miterlimit: 10;"/>
          <line class="st2" x1="62" y1="32" x2="32" y2="62" style="fill: none; stroke: #3dbaff; stroke-width: 0.1; stroke-miterlimit: 10;"/>
          <line class="st2" x1="32" y1="62" x2="2.382" y2="32.188" style="fill: none; stroke: #3dbaff; stroke-width: 0.1; stroke-miterlimit: 10;"/>
          <circle class="st2" cx="32" cy="32" r="21" style="fill: none; stroke: #3dbaff; stroke-width: 0.1; stroke-miterlimit: 10;"/>
        </g>
      </g>
      <path xmlns="http://www.w3.org/2000/svg" d="M30,58h-3c-1.7,0-3-1.3-3-3v-3.2c0-0.3-0.1-0.5-0.3-0.7L21,49l2.7-2.1c0.2-0.2,0.3-0.4,0.3-0.7V43c0-1.7,1.3-3,3-3h3v2h-3  c-0.6,0-1,0.4-1,1v3.2c0,0.8-0.3,1.6-0.9,2.1L24,49l1.1,0.7c0.6,0.6,0.9,1.3,0.9,2.1V55c0,0.6,0.4,1,1,1h3V58z"/>
      <path xmlns="http://www.w3.org/2000/svg" d="M37,58h-3v-2h3c0.6,0,1-0.4,1-1v-3.2c0-0.8,0.3-1.6,0.9-2.1L40,49l-1.1-0.7C38.3,47.7,38,47,38,46.2V43c0-0.6-0.4-1-1-1h-3  v-2h3c1.7,0,3,1.3,3,3v3.2c0,0.3,0.1,0.5,0.3,0.7L43,49l-2.7,2.1c-0.2,0.2-0.3,0.4-0.3,0.7V55C40,56.7,38.7,58,37,58z"/>
      <path xmlns="http://www.w3.org/2000/svg" d="M61.9,62L59,45.1c-0.7-3.6-3.5-6.4-7.1-7.1l-10-2c-1.3-0.3-2.3-1.4-2.4-2.7l-0.4-5l1.4-1.9c0.9-1.3,1.5-2.8,1.6-4.4l0.1-1.2  l1.1-0.4c0.9-0.4,1.6-1.2,1.8-2.2l0.3-1.5c0.2-0.9,0-1.8-0.6-2.5c-0.5-0.6-1.1-1-1.9-1.1l0,0c0-6.1-4.9-11-11-11c-6,0-11,4.9-11,11  c-0.7,0.1-1.4,0.5-1.9,1.1c-0.6,0.7-0.8,1.6-0.6,2.5l0.3,1.5c0.2,1,0.9,1.8,1.8,2.2l1.1,0.4l0.1,1.2c0.1,1.6,0.7,3.1,1.6,4.4  l1.4,1.9l-0.4,5c-0.1,1.3-1.1,2.4-2.4,2.7l-10,2c-3.6,0.7-6.4,3.5-7.1,7.1L2.1,62H61.9z M7,45.5c0.5-2.8,2.7-5,5.5-5.6l10-2  c2.2-0.4,3.8-2.3,4-4.5l0.4-5.7l-1.8-2.5c-0.7-1-1.2-2.2-1.3-3.4l-0.2-2.4l-2.2-0.9c-0.3-0.1-0.5-0.4-0.6-0.7l-0.3-1.5  c-0.1-0.3,0-0.6,0.2-0.8s0.5-0.4,0.8-0.4h1.7L23,13c0-5,4-9,9-9s9,4,9,8.9L40.8,15h1.7c0.3,0,0.6,0.1,0.8,0.4  c0.2,0.2,0.3,0.5,0.2,0.8l-0.3,1.5c-0.1,0.3-0.3,0.6-0.6,0.7l-2.2,0.9l-0.2,2.4c-0.1,1.2-0.6,2.4-1.3,3.4l-1.8,2.5l0.4,5.7  c0.2,2.2,1.8,4.1,4,4.5l10,2c2.8,0.6,5,2.7,5.5,5.6L59.8,62H4.2L7,45.5z"/>
    </g>
    <g id="SvgjsG2197" featurekey="nameFeature-0" transform="matrix(0.970873786407767,0,0,0.970873786407767,54.83495164149016,172.6213597788394)" fill="#236c93"/>
    <g id="SvgjsG2198" featurekey="sloganFeature-0" transform="matrix(0.8585810747696303,0,0,0.8585810747696303,79.82828394880741,228.73739175211406)" fill="#339bd4"/>
  </g>
</svg>